<svg version="1.1" xmlns="http://www.w3.org/2000/svg" xmlns:xlink="http://www.w3.org/1999/xlink" width="576px" height="512px" viewBox="0,0,256,227.54688"><g fill="#ffffff" fill-rule="nonzero" stroke="none" stroke-width="1" stroke-linecap="butt" stroke-linejoin="miter" stroke-miterlimit="10" stroke-dasharray="" stroke-dashoffset="0" font-family="none" font-weight="none" font-size="none" text-anchor="none" style="mix-blend-mode: normal"><g transform="translate(0,-0.00434) scale(0.44444,0.44444)"><path d="M549.655,124.083c-6.281,-23.65 -24.787,-42.276 -48.284,-48.597c-42.59,-11.486 -213.371,-11.486 -213.371,-11.486c0,0 -170.78,0 -213.371,11.486c-23.497,6.322 -42.003,24.947 -48.284,48.597c-11.412,42.867 -11.412,132.305 -11.412,132.305c0,0 0,89.438 11.412,132.305c6.281,23.65 24.787,41.5 48.284,47.821c42.591,11.486 213.371,11.486 213.371,11.486c0,0 170.78,0 213.371,-11.486c23.497,-6.321 42.003,-24.171 48.284,-47.821c11.412,-42.867 11.412,-132.305 11.412,-132.305c0,0 0,-89.438 -11.412,-132.305zM232.145,337.591v-162.406l142.739,81.205z"></path></g></g></svg>